<svg xmlns="http://www.w3.org/2000/svg" xmlns:xlink="http://www.w3.org/1999/xlink" width="460" zoomAndPan="magnify" viewBox="0 0 345 52.499999" height="70" preserveAspectRatio="xMidYMid meet" version="1.0"><defs><g/><clipPath id="d805bb94a8"><path d="M 19.0625 7.371094 L 152.359375 7.371094 L 152.359375 44.515625 L 19.0625 44.515625 Z M 19.0625 7.371094 " clip-rule="nonzero"/></clipPath></defs><g clip-path="url(#d805bb94a8)"><path fill="#4a71ff" d="M 143.933594 22.625 C 141.449219 22.660156 139.117188 23.878906 137.6875 25.914062 C 134.230469 30.789062 134.609375 37.402344 138.585938 41.863281 C 122.644531 41.097656 106.65625 41.488281 90.765625 43.023438 C 93.203125 40.859375 95.925781 39.035156 98.847656 37.59375 C 109.132812 37.308594 119.425781 37.570312 129.699219 38.375 C 119.332031 36.683594 108.847656 36.042969 98.363281 36.46875 C 94.171875 38.550781 90.363281 41.296875 87.074219 44.597656 C 105.085938 42.515625 123.226562 41.863281 141.34375 42.644531 C 136.242188 38.929688 135.070312 31.804688 138.714844 26.660156 C 140.785156 23.710938 144.859375 23.015625 147.792969 25.085938 C 148.691406 25.722656 149.414062 26.5625 149.886719 27.558594 C 151.839844 32.765625 150.917969 38.609375 147.460938 42.964844 C 152.242188 39.132812 153.734375 32.492188 151.035156 26.988281 C 149.722656 24.292969 146.953125 22.585938 143.945312 22.625 Z M 78.882812 21.546875 C 75.605469 21.546875 72.492188 23.015625 70.410156 25.546875 C 66.222656 30.492188 65.726562 37.59375 69.203125 43.070312 C 65.726562 43.121094 62.292969 42.242188 59.265625 40.550781 L 47.59375 32.882812 C 44.875 30.917969 41.632812 29.792969 38.269531 29.675781 L 19.574219 29.320312 C 19.089844 30.503906 19.230469 31.84375 19.953125 32.882812 C 21.917969 35.5 24.355469 37.710938 27.136719 39.414062 C 27.679688 39.769531 28.117188 40.265625 28.402344 40.859375 L 19.0625 41.261719 L 29.925781 41.472656 C 29.691406 40.171875 28.921875 39.035156 27.808594 38.339844 C 25.171875 36.71875 22.851562 34.609375 20.992188 32.136719 C 20.683594 31.699219 20.53125 31.15625 20.566406 30.621094 L 38.234375 30.953125 C 41.335938 31.0625 44.339844 32.101562 46.863281 33.9375 L 58.589844 41.640625 C 62.351562 43.757812 66.683594 44.667969 70.980469 44.242188 C 66.339844 38.03125 67.617188 29.226562 73.84375 24.585938 C 74.28125 24.257812 74.730469 23.960938 75.203125 23.6875 C 80.566406 21.757812 86.457031 24.550781 88.386719 29.914062 C 88.46875 30.171875 88.5625 30.445312 88.636719 30.71875 C 89.285156 32.976562 89.464844 35.367188 89.144531 37.710938 C 91.214844 32.445312 89.378906 26.457031 84.730469 23.238281 L 84.71875 23.238281 C 82.980469 22.136719 80.953125 21.558594 78.882812 21.546875 Z M 27.785156 18.992188 C 24.875 19.003906 21.976562 19.039062 19.074219 19.121094 C 32.292969 20.054688 45.535156 20.824219 58.777344 21.40625 C 58.707031 22.078125 58.234375 22.636719 57.59375 22.835938 C 53.9375 23.984375 50.082031 24.304688 46.28125 23.808594 C 37.21875 23.203125 28.117188 23.320312 19.0625 24.171875 C 28.105469 24.019531 37.144531 24.316406 46.152344 25.074219 C 50.117188 25.59375 54.152344 25.25 57.972656 24.054688 C 59.191406 23.675781 60.03125 22.550781 60.054688 21.273438 L 60.054688 20.234375 C 49.3125 19.378906 38.542969 18.964844 27.761719 18.992188 Z M 87.640625 10.96875 C 74.589844 10.917969 61.605469 12.753906 49.074219 16.421875 C 66.066406 15.808594 83.074219 17.167969 99.746094 20.457031 C 111.414062 23.402344 123.628906 23.511719 135.355469 20.789062 C 140.078125 19.855469 144.988281 20.964844 148.859375 23.84375 C 144.3125 19.664062 137.910156 18.1875 132.007812 19.960938 C 131.863281 19.996094 131.722656 20.03125 131.582031 20.054688 L 131.566406 20.054688 C 121.332031 22.042969 110.800781 21.867188 100.632812 19.535156 C 86.882812 16.683594 72.882812 15.214844 58.847656 15.144531 C 68.824219 12.625 79.050781 11.226562 89.332031 10.992188 C 88.765625 10.980469 88.199219 10.96875 87.628906 10.96875 Z M 86.113281 7.382812 C 81.867188 7.40625 77.640625 7.785156 73.453125 8.492188 C 55.394531 11.820312 37.265625 14.765625 19.074219 17.320312 C 27.371094 17.417969 35.667969 16.789062 43.855469 15.453125 C 53.855469 12.871094 63.996094 10.917969 74.234375 9.59375 C 91.808594 7.074219 109.722656 9.949219 125.617188 17.832031 C 113.605469 10.90625 99.972656 7.296875 86.113281 7.382812 " fill-opacity="1" fill-rule="nonzero"/></g><g fill="#4a71ff" fill-opacity="1"><g transform="translate(161.008881, 36.031838)"><g><path d="M 11.171875 -20.796875 C 13.828125 -20.796875 15.90625 -20.160156 17.40625 -18.890625 C 18.90625 -17.617188 19.65625 -15.875 19.65625 -13.65625 C 19.65625 -11.445312 18.90625 -9.710938 17.40625 -8.453125 C 15.90625 -7.191406 13.828125 -6.5625 11.171875 -6.5625 L 5.578125 -6.5625 L 5.578125 0 L 3.390625 0 L 3.390625 -20.796875 Z M 11.109375 -8.5 C 13.171875 -8.5 14.742188 -8.945312 15.828125 -9.84375 C 16.921875 -10.75 17.46875 -12.019531 17.46875 -13.65625 C 17.46875 -15.34375 16.921875 -16.632812 15.828125 -17.53125 C 14.742188 -18.4375 13.171875 -18.890625 11.109375 -18.890625 L 5.578125 -18.890625 L 5.578125 -8.5 Z M 11.109375 -8.5 "/></g></g></g><g fill="#4a71ff" fill-opacity="1"><g transform="translate(182.337386, 36.031838)"><g><path d="M 4.953125 -12.5625 C 5.453125 -13.613281 6.191406 -14.40625 7.171875 -14.9375 C 8.148438 -15.476562 9.363281 -15.75 10.8125 -15.75 L 10.8125 -13.6875 L 10.3125 -13.71875 C 8.664062 -13.71875 7.375 -13.210938 6.4375 -12.203125 C 5.507812 -11.191406 5.046875 -9.773438 5.046875 -7.953125 L 5.046875 0 L 2.9375 0 L 2.9375 -15.625 L 4.953125 -15.625 Z M 4.953125 -12.5625 "/></g></g></g><g fill="#4a71ff" fill-opacity="1"><g transform="translate(194.249265, 36.031838)"><g><path d="M 2.9375 -15.625 L 5.046875 -15.625 L 5.046875 0 L 2.9375 0 Z M 4.015625 -19.046875 C 3.578125 -19.046875 3.207031 -19.191406 2.90625 -19.484375 C 2.613281 -19.785156 2.46875 -20.140625 2.46875 -20.546875 C 2.46875 -20.953125 2.613281 -21.300781 2.90625 -21.59375 C 3.207031 -21.894531 3.578125 -22.046875 4.015625 -22.046875 C 4.453125 -22.046875 4.816406 -21.898438 5.109375 -21.609375 C 5.410156 -21.316406 5.5625 -20.972656 5.5625 -20.578125 C 5.5625 -20.148438 5.410156 -19.785156 5.109375 -19.484375 C 4.816406 -19.191406 4.453125 -19.046875 4.015625 -19.046875 Z M 4.015625 -19.046875 "/></g></g></g><g fill="#4a71ff" fill-opacity="1"><g transform="translate(202.240022, 36.031838)"><g><path d="M 22.421875 -15.75 C 24.378906 -15.75 25.914062 -15.179688 27.03125 -14.046875 C 28.15625 -12.921875 28.71875 -11.257812 28.71875 -9.0625 L 28.71875 0 L 26.609375 0 L 26.609375 -8.84375 C 26.609375 -10.46875 26.21875 -11.707031 25.4375 -12.5625 C 24.65625 -13.414062 23.550781 -13.84375 22.125 -13.84375 C 20.5 -13.84375 19.222656 -13.34375 18.296875 -12.34375 C 17.367188 -11.34375 16.90625 -9.960938 16.90625 -8.203125 L 16.90625 0 L 14.796875 0 L 14.796875 -8.84375 C 14.796875 -10.46875 14.40625 -11.707031 13.625 -12.5625 C 12.84375 -13.414062 11.726562 -13.84375 10.28125 -13.84375 C 8.675781 -13.84375 7.398438 -13.34375 6.453125 -12.34375 C 5.515625 -11.34375 5.046875 -9.960938 5.046875 -8.203125 L 5.046875 0 L 2.9375 0 L 2.9375 -15.625 L 4.953125 -15.625 L 4.953125 -12.765625 C 5.515625 -13.722656 6.289062 -14.457031 7.28125 -14.96875 C 8.269531 -15.488281 9.40625 -15.75 10.6875 -15.75 C 12 -15.75 13.132812 -15.46875 14.09375 -14.90625 C 15.050781 -14.351562 15.769531 -13.535156 16.25 -12.453125 C 16.820312 -13.472656 17.644531 -14.273438 18.71875 -14.859375 C 19.800781 -15.453125 21.035156 -15.75 22.421875 -15.75 Z M 22.421875 -15.75 "/></g></g></g><g fill="#4a71ff" fill-opacity="1"><g transform="translate(233.757496, 36.031838)"><g><path d="M 16.546875 -7.15625 L 3.46875 -7.15625 C 3.59375 -5.53125 4.21875 -4.21875 5.34375 -3.21875 C 6.476562 -2.21875 7.90625 -1.71875 9.625 -1.71875 C 10.59375 -1.71875 11.484375 -1.890625 12.296875 -2.234375 C 13.109375 -2.585938 13.8125 -3.097656 14.40625 -3.765625 L 15.59375 -2.40625 C 14.894531 -1.570312 14.023438 -0.9375 12.984375 -0.5 C 11.953125 -0.0625 10.8125 0.15625 9.5625 0.15625 C 7.957031 0.15625 6.535156 -0.1875 5.296875 -0.875 C 4.066406 -1.5625 3.101562 -2.507812 2.40625 -3.71875 C 1.707031 -4.925781 1.359375 -6.289062 1.359375 -7.8125 C 1.359375 -9.332031 1.691406 -10.695312 2.359375 -11.90625 C 3.023438 -13.113281 3.9375 -14.054688 5.09375 -14.734375 C 6.25 -15.410156 7.550781 -15.75 9 -15.75 C 10.445312 -15.75 11.742188 -15.410156 12.890625 -14.734375 C 14.035156 -14.054688 14.9375 -13.117188 15.59375 -11.921875 C 16.25 -10.722656 16.578125 -9.351562 16.578125 -7.8125 Z M 9 -13.9375 C 7.5 -13.9375 6.238281 -13.453125 5.21875 -12.484375 C 4.195312 -11.523438 3.613281 -10.273438 3.46875 -8.734375 L 14.546875 -8.734375 C 14.410156 -10.273438 13.832031 -11.523438 12.8125 -12.484375 C 11.789062 -13.453125 10.519531 -13.9375 9 -13.9375 Z M 9 -13.9375 "/></g></g></g><g fill="#000000" fill-opacity="1"><g transform="translate(251.703708, 36.031838)"><g><path d="M 12.421875 0.171875 C 10.359375 0.171875 8.5 -0.28125 6.84375 -1.1875 C 5.1875 -2.09375 3.890625 -3.351562 2.953125 -4.96875 C 2.015625 -6.582031 1.546875 -8.390625 1.546875 -10.390625 C 1.546875 -12.390625 2.015625 -14.195312 2.953125 -15.8125 C 3.890625 -17.425781 5.191406 -18.6875 6.859375 -19.59375 C 8.523438 -20.507812 10.390625 -20.96875 12.453125 -20.96875 C 13.992188 -20.96875 15.414062 -20.707031 16.71875 -20.1875 C 18.03125 -19.675781 19.140625 -18.925781 20.046875 -17.9375 L 18.65625 -16.546875 C 17.03125 -18.191406 14.976562 -19.015625 12.5 -19.015625 C 10.863281 -19.015625 9.367188 -18.632812 8.015625 -17.875 C 6.671875 -17.125 5.617188 -16.09375 4.859375 -14.78125 C 4.097656 -13.476562 3.71875 -12.015625 3.71875 -10.390625 C 3.71875 -8.765625 4.097656 -7.300781 4.859375 -6 C 5.617188 -4.695312 6.671875 -3.664062 8.015625 -2.90625 C 9.367188 -2.15625 10.863281 -1.78125 12.5 -1.78125 C 15 -1.78125 17.050781 -2.613281 18.65625 -4.28125 L 20.046875 -2.875 C 19.140625 -1.882812 18.023438 -1.128906 16.703125 -0.609375 C 15.390625 -0.0859375 13.960938 0.171875 12.421875 0.171875 Z M 12.421875 0.171875 "/></g></g></g><g fill="#000000" fill-opacity="1"><g transform="translate(273.061914, 36.031838)"><g><path d="M 2.9375 -22.046875 L 5.046875 -22.046875 L 5.046875 0 L 2.9375 0 Z M 2.9375 -22.046875 "/></g></g></g><g fill="#000000" fill-opacity="1"><g transform="translate(281.052671, 36.031838)"><g><path d="M 8.40625 -15.75 C 10.445312 -15.75 12.007812 -15.238281 13.09375 -14.21875 C 14.1875 -13.195312 14.734375 -11.6875 14.734375 -9.6875 L 14.734375 0 L 12.71875 0 L 12.71875 -2.4375 C 12.238281 -1.625 11.535156 -0.988281 10.609375 -0.53125 C 9.691406 -0.0703125 8.601562 0.15625 7.34375 0.15625 C 5.59375 0.15625 4.203125 -0.257812 3.171875 -1.09375 C 2.148438 -1.925781 1.640625 -3.023438 1.640625 -4.390625 C 1.640625 -5.722656 2.117188 -6.796875 3.078125 -7.609375 C 4.035156 -8.421875 5.5625 -8.828125 7.65625 -8.828125 L 12.625 -8.828125 L 12.625 -9.765625 C 12.625 -11.117188 12.242188 -12.144531 11.484375 -12.84375 C 10.734375 -13.550781 9.640625 -13.90625 8.203125 -13.90625 C 7.210938 -13.90625 6.257812 -13.738281 5.34375 -13.40625 C 4.4375 -13.082031 3.65625 -12.632812 3 -12.0625 L 2.046875 -13.640625 C 2.835938 -14.304688 3.785156 -14.820312 4.890625 -15.1875 C 6.003906 -15.5625 7.175781 -15.75 8.40625 -15.75 Z M 7.65625 -1.515625 C 8.851562 -1.515625 9.875 -1.785156 10.71875 -2.328125 C 11.570312 -2.878906 12.207031 -3.664062 12.625 -4.6875 L 12.625 -7.25 L 7.71875 -7.25 C 5.050781 -7.25 3.71875 -6.316406 3.71875 -4.453125 C 3.71875 -3.546875 4.0625 -2.828125 4.75 -2.296875 C 5.445312 -1.773438 6.414062 -1.515625 7.65625 -1.515625 Z M 7.65625 -1.515625 "/></g></g></g><g fill="#000000" fill-opacity="1"><g transform="translate(298.578881, 36.031838)"><g><path d="M 7.125 0.15625 C 5.863281 0.15625 4.648438 -0.0234375 3.484375 -0.390625 C 2.328125 -0.765625 1.421875 -1.226562 0.765625 -1.78125 L 1.71875 -3.453125 C 2.375 -2.929688 3.195312 -2.503906 4.1875 -2.171875 C 5.175781 -1.847656 6.207031 -1.6875 7.28125 -1.6875 C 8.707031 -1.6875 9.757812 -1.910156 10.4375 -2.359375 C 11.125 -2.804688 11.46875 -3.4375 11.46875 -4.25 C 11.46875 -4.820312 11.28125 -5.269531 10.90625 -5.59375 C 10.53125 -5.925781 10.050781 -6.175781 9.46875 -6.34375 C 8.894531 -6.507812 8.132812 -6.671875 7.1875 -6.828125 C 5.914062 -7.066406 4.894531 -7.3125 4.125 -7.5625 C 3.351562 -7.8125 2.695312 -8.234375 2.15625 -8.828125 C 1.613281 -9.421875 1.34375 -10.238281 1.34375 -11.28125 C 1.34375 -12.59375 1.882812 -13.664062 2.96875 -14.5 C 4.0625 -15.332031 5.578125 -15.75 7.515625 -15.75 C 8.523438 -15.75 9.535156 -15.613281 10.546875 -15.34375 C 11.554688 -15.070312 12.390625 -14.71875 13.046875 -14.28125 L 12.125 -12.59375 C 10.832031 -13.488281 9.296875 -13.9375 7.515625 -13.9375 C 6.171875 -13.9375 5.15625 -13.695312 4.46875 -13.21875 C 3.789062 -12.738281 3.453125 -12.113281 3.453125 -11.34375 C 3.453125 -10.75 3.644531 -10.273438 4.03125 -9.921875 C 4.414062 -9.566406 4.894531 -9.300781 5.46875 -9.125 C 6.039062 -8.957031 6.832031 -8.785156 7.84375 -8.609375 C 9.09375 -8.367188 10.09375 -8.128906 10.84375 -7.890625 C 11.59375 -7.660156 12.234375 -7.257812 12.765625 -6.6875 C 13.304688 -6.113281 13.578125 -5.320312 13.578125 -4.3125 C 13.578125 -2.9375 13.003906 -1.847656 11.859375 -1.046875 C 10.722656 -0.242188 9.144531 0.15625 7.125 0.15625 Z M 7.125 0.15625 "/></g></g></g><g fill="#000000" fill-opacity="1"><g transform="translate(313.104837, 36.031838)"><g><path d="M 7.125 0.15625 C 5.863281 0.15625 4.648438 -0.0234375 3.484375 -0.390625 C 2.328125 -0.765625 1.421875 -1.226562 0.765625 -1.78125 L 1.71875 -3.453125 C 2.375 -2.929688 3.195312 -2.503906 4.1875 -2.171875 C 5.175781 -1.847656 6.207031 -1.6875 7.28125 -1.6875 C 8.707031 -1.6875 9.757812 -1.910156 10.4375 -2.359375 C 11.125 -2.804688 11.46875 -3.4375 11.46875 -4.25 C 11.46875 -4.820312 11.28125 -5.269531 10.90625 -5.59375 C 10.53125 -5.925781 10.050781 -6.175781 9.46875 -6.34375 C 8.894531 -6.507812 8.132812 -6.671875 7.1875 -6.828125 C 5.914062 -7.066406 4.894531 -7.3125 4.125 -7.5625 C 3.351562 -7.8125 2.695312 -8.234375 2.15625 -8.828125 C 1.613281 -9.421875 1.34375 -10.238281 1.34375 -11.28125 C 1.34375 -12.59375 1.882812 -13.664062 2.96875 -14.5 C 4.0625 -15.332031 5.578125 -15.75 7.515625 -15.75 C 8.523438 -15.75 9.535156 -15.613281 10.546875 -15.34375 C 11.554688 -15.070312 12.390625 -14.71875 13.046875 -14.28125 L 12.125 -12.59375 C 10.832031 -13.488281 9.296875 -13.9375 7.515625 -13.9375 C 6.171875 -13.9375 5.15625 -13.695312 4.46875 -13.21875 C 3.789062 -12.738281 3.453125 -12.113281 3.453125 -11.34375 C 3.453125 -10.75 3.644531 -10.273438 4.03125 -9.921875 C 4.414062 -9.566406 4.894531 -9.300781 5.46875 -9.125 C 6.039062 -8.957031 6.832031 -8.785156 7.84375 -8.609375 C 9.09375 -8.367188 10.09375 -8.128906 10.84375 -7.890625 C 11.59375 -7.660156 12.234375 -7.257812 12.765625 -6.6875 C 13.304688 -6.113281 13.578125 -5.320312 13.578125 -4.3125 C 13.578125 -2.9375 13.003906 -1.847656 11.859375 -1.046875 C 10.722656 -0.242188 9.144531 0.15625 7.125 0.15625 Z M 7.125 0.15625 "/></g></g></g></svg>